<svg width="512" height="512" viewBox="0 0 512 512" fill="none" xmlns="http://www.w3.org/2000/svg">
<path d="M450.144 102.507L398.88 34.0694C395.882 30.1283 392.017 26.9291 387.586 24.7189C383.155 22.5087 378.274 21.3468 373.322 21.3228H138.666C128.725 21.3228 119.178 26.0908 113.066 34.1228L61.8665 102.496C56.3087 109.868 53.3122 118.854 53.3331 128.085V394.645C53.3331 412.288 67.6905 426.645 85.3331 426.645H121.066C123.895 426.645 126.609 425.522 128.609 423.521C130.609 421.521 131.733 418.808 131.733 415.979C131.733 413.15 130.609 410.437 128.609 408.436C126.609 406.436 123.895 405.312 121.066 405.312H85.3331C79.4451 405.312 74.6665 400.523 74.6665 394.645V128.107L74.6878 128H213.333V170.667C213.333 182.4 222.933 192 234.666 192H277.333C289.066 192 298.666 182.4 298.666 170.667V128H437.312L437.333 128.107V394.667C437.333 400.544 432.554 405.333 426.666 405.333H390.933C388.104 405.333 385.391 406.457 383.391 408.458C381.39 410.458 380.266 413.171 380.266 416C380.266 418.829 381.39 421.542 383.391 423.543C385.391 425.543 388.104 426.667 390.933 426.667H426.666C444.309 426.667 458.666 412.309 458.666 394.667V128.107C458.666 118.805 455.722 109.952 450.144 102.517V102.507ZM381.856 46.9228L426.602 106.667H297.386L289.429 42.6668H373.333C376.65 42.6668 379.84 44.2774 381.856 46.9228ZM267.946 42.6668L275.925 106.667H236.074L244.053 42.6668H267.946ZM130.09 46.9868C131.094 45.6585 132.389 44.5784 133.876 43.8294C135.363 43.0805 137.002 42.6827 138.666 42.6668H222.656L214.613 106.667H85.3971L130.09 46.9868ZM277.333 170.667H234.666V128H277.333V170.667Z" fill="black"/>
<path d="M256 277.333C197.184 277.333 149.333 325.184 149.333 384C149.333 442.816 197.184 490.667 256 490.667C314.816 490.667 362.666 442.816 362.666 384C362.666 325.184 314.816 277.333 256 277.333ZM256 469.334C208.949 469.334 170.666 431.051 170.666 384C170.666 336.95 208.949 298.667 256 298.667C303.05 298.667 341.333 336.95 341.333 384C341.333 431.051 303.05 469.334 256 469.334Z" fill="black"/>
<path d="M291.125 350.134L243.808 397.451L220.874 374.517C219.884 373.527 218.708 372.742 217.414 372.206C216.12 371.67 214.734 371.394 213.333 371.394C211.932 371.394 210.546 371.67 209.252 372.206C207.958 372.742 206.782 373.527 205.792 374.517C204.801 375.508 204.016 376.684 203.48 377.977C202.944 379.271 202.668 380.658 202.668 382.059C202.668 383.459 202.944 384.846 203.48 386.14C204.016 387.434 204.801 388.61 205.792 389.6L232.501 416.299C235.616 419.413 239.722 420.971 243.818 420.971C247.914 420.971 252.021 419.413 255.136 416.299L306.218 365.216C307.209 364.226 307.994 363.05 308.53 361.756C309.066 360.462 309.342 359.075 309.342 357.675C309.342 356.274 309.066 354.887 308.53 353.594C307.994 352.3 307.209 351.124 306.218 350.134C305.228 349.143 304.052 348.358 302.758 347.822C301.464 347.286 300.078 347.01 298.677 347.01C297.276 347.01 295.89 347.286 294.596 347.822C293.302 348.358 292.126 349.143 291.136 350.134H291.125Z" fill="black"/>
</svg>
