<svg width="512" height="512" viewBox="0 0 512 512" fill="none" xmlns="http://www.w3.org/2000/svg">
<g clip-path="url(#clip0_79_17)">
<path d="M384 452.267V76.8C384 58.0266 368.64 42.6666 349.867 42.6666H42.6665C23.8932 42.6666 8.5332 58.0266 8.5332 76.8V452.267C8.5332 471.04 23.8932 486.4 42.6665 486.4H349.867C358.919 486.4 367.601 482.804 374.002 476.403C380.404 470.001 384 461.319 384 452.267Z" fill="#AD6D40"/>
<path d="M341.333 76.8H51.1998C46.487 76.8 42.6665 80.6206 42.6665 85.3334V443.733C42.6665 448.446 46.487 452.267 51.1998 452.267H341.333C346.046 452.267 349.867 448.446 349.867 443.733V85.3334C349.867 80.6206 346.046 76.8 341.333 76.8Z" fill="#F8F8FF"/>
<path d="M264.533 42.6667V68.2667C264.533 77.6533 256.853 85.3333 247.467 85.3333H145.067C135.68 85.3333 128 77.6533 128 68.2667V42.6667C128 37.9733 131.84 34.1333 136.533 34.1333H163.243C166.997 19.3707 180.395 8.53333 196.267 8.53333C212.139 8.53333 225.536 19.3707 229.291 34.1333H256C260.693 34.1333 264.533 37.9733 264.533 42.6667Z" fill="#CBCBF4"/>
<path d="M503.467 255.659V486.4C503.467 495.787 495.787 503.467 486.4 503.467H230.4C221.013 503.467 213.333 495.787 213.333 486.4V255.659H503.467Z" fill="#EA9453"/>
<path d="M500.864 249.489L450.227 198.852C449.41 198.033 448.439 197.383 447.37 196.939C446.301 196.496 445.155 196.267 443.998 196.267H272.811C271.653 196.266 270.507 196.494 269.438 196.938C268.369 197.382 267.398 198.032 266.581 198.852L215.945 249.489C210.389 255.044 214.323 264.533 222.174 264.533H494.643C502.494 264.533 506.419 255.044 500.864 249.489Z" fill="#FCB36B"/>
<path d="M401.067 264.533V324.267C401.067 326.53 400.168 328.7 398.567 330.301C396.967 331.901 394.797 332.8 392.533 332.8H324.267C322.004 332.8 319.833 331.901 318.233 330.301C316.632 328.7 315.733 326.53 315.733 324.267V264.533L324.267 256H392.533L401.067 264.533Z" fill="#723535"/>
<path d="M298.667 426.667H256C251.287 426.667 247.467 430.487 247.467 435.2V460.8C247.467 465.513 251.287 469.333 256 469.333H298.667C303.38 469.333 307.2 465.513 307.2 460.8V435.2C307.2 430.487 303.38 426.667 298.667 426.667Z" fill="white"/>
<path d="M401.067 264.533L375.467 196.267H341.333L315.733 264.533H401.067Z" fill="#914747"/>
<path d="M506.897 243.456L456.269 192.828C454.663 191.205 452.75 189.918 450.642 189.042C448.534 188.166 446.272 187.718 443.989 187.725H392.533V76.7915C392.533 53.2651 373.393 34.1248 349.867 34.1248H270.694C267.733 29.0475 262.289 25.5915 256 25.5915H235.366C228.719 10.24 213.478 0 196.267 0C179.055 0 163.814 10.24 157.167 25.6H136.533C130.244 25.6 124.8 29.056 121.839 34.1333H42.6667C19.1403 34.1333 0 53.2736 0 76.8V452.267C0 475.793 19.1403 494.933 42.6667 494.933H206.37C208.124 499.91 211.376 504.222 215.678 507.278C219.981 510.334 225.123 511.983 230.4 512H486.4C500.514 512 512 500.514 512 486.4V255.659C512 255.249 511.821 254.899 511.77 254.515C511.549 250.36 509.816 246.421 506.897 243.456ZM444.186 204.877L494.831 255.522L494.635 256L406.929 255.846L387.806 204.851L444.186 204.877ZM369.562 204.843L388.676 255.812L328.158 255.71L347.238 204.834H369.57L369.562 204.843ZM309.931 255.684L221.961 255.531L272.802 204.809L329.003 204.834L309.931 255.684ZM324.258 273.075H392.525V324.275H324.258V273.075ZM375.458 76.8085V187.742H358.391V85.3419C358.391 75.9296 350.737 68.2752 341.325 68.2752H273.058V51.2085H349.858C363.972 51.2085 375.458 62.6944 375.458 76.8085ZM136.525 42.6752H163.234C167.134 42.6752 170.539 40.0213 171.503 36.2496C174.379 24.96 184.559 17.0752 196.258 17.0752C207.957 17.0752 218.138 24.96 221.013 36.2496C221.482 38.0872 222.549 39.7163 224.046 40.8799C225.544 42.0435 227.386 42.6752 229.282 42.6752L255.991 42.7008V68.2752C255.991 70.5384 255.092 72.7089 253.492 74.3092C251.892 75.9095 249.721 76.8085 247.458 76.8085H145.058C142.795 76.8085 140.624 75.9095 139.024 74.3092C137.424 72.7089 136.525 70.5384 136.525 68.2752V42.6752ZM17.0667 452.267V76.8C17.0667 62.6859 28.5525 51.2 42.6667 51.2H119.467V68.2667H51.2C41.7877 68.2667 34.1333 75.9211 34.1333 85.3333V443.733C34.1333 453.146 41.7877 460.8 51.2 460.8H204.8V477.867H42.6667C28.5525 477.867 17.0667 466.381 17.0667 452.267ZM486.4 494.933H230.4C228.137 494.933 225.966 494.034 224.366 492.434C222.766 490.834 221.867 488.663 221.867 486.4V401.067C221.867 398.804 220.968 396.633 219.367 395.033C217.767 393.432 215.597 392.533 213.333 392.533C211.07 392.533 208.9 393.432 207.299 395.033C205.699 396.633 204.8 398.804 204.8 401.067V443.733H51.2V85.3333H126.123C130.807 90.5301 137.532 93.8667 145.067 93.8667H247.467C255.002 93.8667 261.717 90.5301 266.411 85.3333H341.333V187.733H272.811C268.16 187.733 263.799 189.542 260.54 192.819L209.894 243.465C206.984 246.435 205.252 250.363 205.022 254.515C204.971 254.908 204.791 255.258 204.791 255.659V366.933C204.791 369.197 205.691 371.367 207.291 372.967C208.891 374.568 211.062 375.467 213.325 375.467C215.588 375.467 217.758 374.568 219.359 372.967C220.959 371.367 221.858 369.197 221.858 366.933V273.024C221.961 273.024 222.054 273.067 222.157 273.067H307.191V324.267C307.191 333.679 314.846 341.333 324.258 341.333H392.525C401.937 341.333 409.591 333.679 409.591 324.267V273.067H494.626C494.729 273.067 494.822 273.024 494.925 273.024V486.4C494.925 488.663 494.026 490.834 492.425 492.434C490.825 494.034 488.663 494.933 486.4 494.933Z" fill="#262626"/>
<path d="M298.667 418.133H256C246.588 418.133 238.934 425.788 238.934 435.2V460.8C238.934 470.212 246.588 477.867 256 477.867H298.667C308.079 477.867 315.734 470.212 315.734 460.8V435.2C315.734 425.788 308.079 418.133 298.667 418.133ZM256 460.8V435.2H298.667L298.684 460.8H256ZM146.5 131.797L118.144 174.336L108.433 164.625C107.641 163.833 106.7 163.204 105.665 162.776C104.63 162.347 103.521 162.126 102.4 162.126C101.28 162.126 100.17 162.347 99.1351 162.776C98.1 163.204 97.1594 163.833 96.3671 164.625C95.5749 165.417 94.9464 166.358 94.5176 167.393C94.0889 168.428 93.8682 169.538 93.8682 170.658C93.8682 171.779 94.0889 172.888 94.5176 173.923C94.9464 174.958 95.5749 175.899 96.3671 176.691L113.434 193.758C114.326 194.65 115.406 195.334 116.594 195.759C117.783 196.184 119.051 196.341 120.307 196.216C121.563 196.092 122.776 195.691 123.859 195.042C124.941 194.392 125.866 193.511 126.567 192.461L160.7 141.261C161.956 139.378 162.413 137.073 161.969 134.853C161.526 132.634 160.219 130.681 158.336 129.425C157.404 128.803 156.358 128.371 155.259 128.153C154.159 127.935 153.028 127.936 151.929 128.156C149.709 128.599 147.757 129.914 146.5 131.797ZM146.5 234.197L118.144 276.736L108.433 267.025C107.641 266.233 106.7 265.604 105.665 265.176C104.63 264.747 103.521 264.526 102.4 264.526C101.28 264.526 100.17 264.747 99.1351 265.176C98.1 265.604 97.1594 266.233 96.3671 267.025C95.5749 267.817 94.9464 268.758 94.5176 269.793C94.0889 270.828 93.8682 271.938 93.8682 273.058C93.8682 274.179 94.0889 275.288 94.5176 276.323C94.9464 277.358 95.5749 278.299 96.3671 279.091L113.434 296.158C114.326 297.05 115.406 297.734 116.594 298.159C117.783 298.584 119.051 298.741 120.307 298.616C121.563 298.492 122.776 298.091 123.859 297.442C124.941 296.792 125.866 295.911 126.567 294.861L160.7 243.661C161.322 242.728 161.754 241.683 161.972 240.583C162.19 239.484 162.189 238.352 161.969 237.253C161.75 236.154 161.316 235.109 160.693 234.178C160.069 233.246 159.269 232.447 158.336 231.825C157.404 231.203 156.358 230.771 155.259 230.553C154.159 230.335 153.028 230.336 151.929 230.556C150.83 230.775 149.785 231.209 148.853 231.832C147.922 232.456 147.122 233.265 146.5 234.197ZM146.5 336.597L118.144 379.136L108.433 369.425C106.833 367.825 104.663 366.926 102.4 366.926C100.137 366.926 97.9672 367.825 96.3671 369.425C94.7671 371.025 93.8682 373.195 93.8682 375.458C93.8682 377.721 94.7671 379.891 96.3671 381.491L113.434 398.558C114.326 399.451 115.406 400.134 116.594 400.559C117.783 400.984 119.051 401.141 120.307 401.016C121.563 400.892 122.776 400.491 123.859 399.842C124.941 399.192 125.866 398.311 126.567 397.261L160.7 346.061C161.322 345.128 161.754 344.083 161.972 342.983C162.19 341.884 162.189 340.752 161.969 339.653C161.75 338.554 161.316 337.509 160.693 336.578C160.069 335.646 159.269 334.847 158.336 334.225C157.404 333.603 156.358 333.171 155.259 332.953C154.159 332.735 153.028 332.736 151.929 332.956C150.83 333.175 149.785 333.609 148.853 334.232C147.922 334.856 147.122 335.665 146.5 336.597ZM415.633 420.634C414.841 419.84 413.901 419.211 412.866 418.782C411.831 418.353 410.721 418.132 409.6 418.132C408.479 418.132 407.37 418.353 406.335 418.782C405.299 419.211 404.359 419.84 403.567 420.634L395.034 429.167C393.837 430.359 393.02 431.879 392.689 433.536C392.358 435.192 392.526 436.91 393.172 438.471C393.819 440.031 394.914 441.365 396.32 442.302C397.725 443.239 399.378 443.737 401.067 443.733V469.333C401.067 471.596 401.966 473.767 403.566 475.367C405.167 476.968 407.337 477.867 409.6 477.867C411.863 477.867 414.034 476.968 415.634 475.367C417.235 473.767 418.134 471.596 418.134 469.333V443.733C419.823 443.737 421.475 443.239 422.881 442.302C424.286 441.365 425.382 440.031 426.028 438.471C426.675 436.91 426.843 435.192 426.511 433.536C426.18 431.879 425.364 430.359 424.167 429.167L415.633 420.634ZM466.833 420.634C466.041 419.84 465.101 419.211 464.066 418.782C463.031 418.353 461.921 418.132 460.8 418.132C459.68 418.132 458.57 418.353 457.535 418.782C456.499 419.211 455.559 419.84 454.767 420.634L446.234 429.167C445.037 430.359 444.22 431.879 443.889 433.536C443.558 435.192 443.726 436.91 444.372 438.471C445.019 440.031 446.114 441.365 447.52 442.302C448.925 443.239 450.578 443.737 452.267 443.733V469.333C452.267 471.596 453.166 473.767 454.766 475.367C456.367 476.968 458.537 477.867 460.8 477.867C463.063 477.867 465.234 476.968 466.834 475.367C468.435 473.767 469.334 471.596 469.334 469.333V443.733C471.023 443.737 472.675 443.239 474.081 442.302C475.486 441.365 476.582 440.031 477.228 438.471C477.875 436.91 478.043 435.192 477.711 433.536C477.38 431.879 476.564 430.359 475.367 429.167L466.833 420.634Z" fill="#262626"/>
</g>
<defs>
<clipPath id="clip0_79_17">
<rect width="512" height="512" fill="white"/>
</clipPath>
</defs>
</svg>
