<svg width="512" height="512" viewBox="0 0 512 512" fill="none" xmlns="http://www.w3.org/2000/svg">
<g clip-path="url(#clip0_77_18)">
<path d="M458.406 380.681C449.543 374.088 437.015 375.929 430.422 384.79C426.778 389.686 422.931 394.427 418.889 399C411.574 407.275 412.351 419.915 420.626 427.231C424.276 430.467 428.987 432.252 433.865 432.247C439.397 432.247 444.905 429.964 448.857 425.493C453.644 420.077 458.2 414.463 462.515 408.664C469.108 399.803 467.269 387.273 458.406 380.681ZM491.854 286.886C481.068 284.537 470.407 291.382 468.058 302.174C466.761 308.131 465.21 314.03 463.412 319.855C460.151 330.409 466.063 341.607 476.616 344.868C478.583 345.475 480.571 345.764 482.527 345.764C491.067 345.764 498.975 340.25 501.629 331.662C503.764 324.75 505.603 317.75 507.143 310.682C509.492 299.89 502.647 289.236 491.854 286.886ZM362.139 444.734C356.811 447.707 351.359 450.454 345.799 452.967C335.732 457.513 331.257 469.359 335.803 479.426C339.143 486.822 346.422 491.199 354.042 491.199C356.794 491.199 359.591 490.628 362.262 489.422C368.856 486.442 375.321 483.185 381.639 479.658C391.284 474.274 394.737 462.09 389.351 452.446C383.968 442.803 371.784 439.35 362.139 444.734ZM236 96V247.716L162.661 321.054C154.851 328.865 154.851 341.528 162.661 349.338C164.516 351.198 166.721 352.673 169.148 353.679C171.575 354.684 174.177 355.2 176.804 355.196C179.431 355.199 182.033 354.683 184.46 353.678C186.887 352.673 189.092 351.198 190.947 349.338L270.143 270.142C273.894 266.391 276 261.304 276 256V96C276 84.954 267.046 76 256 76C244.954 76 236 84.954 236 96Z" fill="black"/>
<path d="M492 43C480.954 43 472 51.954 472 63V118.536C425.448 45.528 344.151 0 256 0C187.62 0 123.333 26.629 74.98 74.98C26.629 123.333 0 187.62 0 256C0 324.38 26.629 388.667 74.98 437.02C123.333 485.371 187.62 512 256 512C256.169 512 256.332 511.979 256.5 511.975C256.668 511.979 256.831 512 257 512C264.208 512 271.487 511.696 278.637 511.098C289.644 510.176 297.82 500.506 296.899 489.499C295.976 478.492 286.319 470.312 275.299 471.238C269.255 471.743 263.099 472 257 472C256.831 472 256.668 472.021 256.5 472.025C256.332 472.021 256.169 472 256 472C136.897 472 40 375.103 40 256C40 136.897 136.897 40 256 40C332.758 40 403.357 80.913 441.936 146H386.943C375.897 146 366.943 154.954 366.943 166C366.943 177.046 375.897 186 386.943 186H448C459.743 186.014 471.261 182.776 481.277 176.647C481.896 176.295 482.495 175.911 483.073 175.495C500.479 164.044 512 144.347 512 122V63C512 51.954 503.046 43 492 43Z" fill="black"/>
</g>
<defs>
<clipPath id="clip0_77_18">
<rect width="512" height="512" fill="white"/>
</clipPath>
</defs>
</svg>
