<svg width="512" height="422" viewBox="0 0 512 422" fill="none" xmlns="http://www.w3.org/2000/svg">
<path d="M258.813 77.2315C345.084 78.078 399.13 72.7103 406.429 168.332H511.632C511.632 20.1988 382.439 0.231812 256.075 0.231812C129.7 0.231812 0.517846 20.1988 0.517846 168.332H104.904C112.98 70.8879 173.259 76.395 258.813 77.2315ZM52.6908 215.954C78.3142 215.954 99.6355 217.488 104.376 192.283C105.013 188.857 105.382 184.973 105.382 180.482H0C0 217.976 23.5919 215.954 52.6908 215.954ZM407.106 180.482H406.12C406.12 185.003 406.509 188.897 407.236 192.283C412.235 215.526 433.526 214.082 459.06 214.082C488.299 214.082 512 216.004 512 180.482H407.106Z" fill="#010002"/>
<path d="M355.71 154.948V140.05C355.71 133.388 348.032 132.97 338.552 132.97H323.066C313.595 132.97 305.917 133.388 305.917 140.05V162.845H196.373V140.05C196.373 133.388 188.695 132.97 179.224 132.97H163.729C154.258 132.97 146.58 133.388 146.58 140.05V167.954C121.624 193.886 39.9637 304.277 36.9961 317.641L37.0359 406.82C37.0359 415.056 43.738 421.758 51.9738 421.758H450.317C458.552 421.758 465.254 415.056 465.254 406.82V317.193C462.317 304.217 380.676 193.876 355.71 167.944V154.948ZM190.976 329.641C189.037 329.692 187.109 329.354 185.303 328.648C183.498 327.941 181.852 326.88 180.464 325.527C179.075 324.174 177.971 322.557 177.218 320.771C176.464 318.985 176.076 317.066 176.076 315.127C176.076 313.188 176.464 311.269 177.218 309.483C177.971 307.696 179.075 306.079 180.464 304.726C181.852 303.373 183.498 302.312 185.303 301.606C187.109 300.899 189.037 300.561 190.976 300.612C194.759 300.711 198.355 302.284 200.996 304.995C203.637 307.706 205.115 311.342 205.115 315.127C205.115 318.912 203.637 322.547 200.996 325.258C198.355 327.97 194.759 329.542 190.976 329.641ZM190.976 279.849C189.037 279.899 187.109 279.561 185.303 278.855C183.498 278.148 181.852 277.087 180.464 275.734C179.075 274.382 177.971 272.764 177.218 270.978C176.464 269.192 176.076 267.273 176.076 265.334C176.076 263.395 176.464 261.476 177.218 259.69C177.971 257.904 179.075 256.286 180.464 254.933C181.852 253.581 183.498 252.52 185.303 251.813C187.109 251.106 189.037 250.769 190.976 250.819C194.759 250.918 198.355 252.491 200.996 255.202C203.637 257.914 205.115 261.549 205.115 265.334C205.115 269.119 203.637 272.754 200.996 275.466C198.355 278.177 194.759 279.749 190.976 279.849ZM190.976 230.066C189.037 230.116 187.109 229.779 185.303 229.072C183.498 228.365 181.852 227.304 180.464 225.952C179.075 224.599 177.971 222.981 177.218 221.195C176.464 219.409 176.076 217.49 176.076 215.551C176.076 213.612 176.464 211.693 177.218 209.907C177.971 208.121 179.075 206.503 180.464 205.151C181.852 203.798 183.498 202.737 185.303 202.03C187.109 201.324 189.037 200.986 190.976 201.036C194.759 201.136 198.355 202.708 200.996 205.419C203.637 208.131 205.115 211.766 205.115 215.551C205.115 219.336 203.637 222.971 200.996 225.683C198.355 228.394 194.759 229.967 190.976 230.066ZM250.727 329.641C248.789 329.692 246.86 329.354 245.055 328.648C243.249 327.941 241.604 326.88 240.215 325.527C238.826 324.174 237.723 322.557 236.969 320.771C236.215 318.985 235.827 317.066 235.827 315.127C235.827 313.188 236.215 311.269 236.969 309.483C237.723 307.696 238.826 306.079 240.215 304.726C241.604 303.373 243.249 302.312 245.055 301.606C246.86 300.899 248.789 300.561 250.727 300.612C254.511 300.711 258.106 302.284 260.747 304.995C263.388 307.706 264.866 311.342 264.866 315.127C264.866 318.912 263.388 322.547 260.747 325.258C258.106 327.97 254.511 329.542 250.727 329.641ZM250.727 279.849C248.789 279.899 246.86 279.561 245.055 278.855C243.249 278.148 241.604 277.087 240.215 275.734C238.826 274.382 237.723 272.764 236.969 270.978C236.215 269.192 235.827 267.273 235.827 265.334C235.827 263.395 236.215 261.476 236.969 259.69C237.723 257.904 238.826 256.286 240.215 254.933C241.604 253.581 243.249 252.52 245.055 251.813C246.86 251.106 248.789 250.769 250.727 250.819C254.511 250.918 258.106 252.491 260.747 255.202C263.388 257.914 264.866 261.549 264.866 265.334C264.866 269.119 263.388 272.754 260.747 275.466C258.106 278.177 254.511 279.749 250.727 279.849ZM250.727 230.066C248.789 230.116 246.86 229.779 245.055 229.072C243.249 228.365 241.604 227.304 240.215 225.952C238.826 224.599 237.723 222.981 236.969 221.195C236.215 219.409 235.827 217.49 235.827 215.551C235.827 213.612 236.215 211.693 236.969 209.907C237.723 208.121 238.826 206.503 240.215 205.151C241.604 203.798 243.249 202.737 245.055 202.03C246.86 201.324 248.789 200.986 250.727 201.036C254.511 201.136 258.106 202.708 260.747 205.419C263.388 208.131 264.866 211.766 264.866 215.551C264.866 219.336 263.388 222.971 260.747 225.683C258.106 228.394 254.511 229.967 250.727 230.066ZM310.478 329.641C306.628 329.641 302.934 328.112 300.211 325.389C297.488 322.666 295.959 318.973 295.959 315.122C295.959 311.271 297.488 307.578 300.211 304.855C302.934 302.132 306.628 300.602 310.478 300.602C314.329 300.602 318.022 302.132 320.745 304.855C323.468 307.578 324.998 311.271 324.998 315.122C324.998 318.973 323.468 322.666 320.745 325.389C318.022 328.112 314.329 329.641 310.478 329.641ZM310.478 279.849C306.628 279.849 302.934 278.319 300.211 275.596C297.488 272.873 295.959 269.18 295.959 265.329C295.959 261.478 297.488 257.785 300.211 255.062C302.934 252.339 306.628 250.809 310.478 250.809C314.329 250.809 318.022 252.339 320.745 255.062C323.468 257.785 324.998 261.478 324.998 265.329C324.998 269.18 323.468 272.873 320.745 275.596C318.022 278.319 314.329 279.849 310.478 279.849ZM310.478 230.066C306.628 230.066 302.934 228.536 300.211 225.813C297.488 223.09 295.959 219.397 295.959 215.546C295.959 211.695 297.488 208.002 300.211 205.279C302.934 202.556 306.628 201.026 310.478 201.026C314.329 201.026 318.022 202.556 320.745 205.279C323.468 208.002 324.998 211.695 324.998 215.546C324.998 219.397 323.468 223.09 320.745 225.813C318.022 228.536 314.329 230.066 310.478 230.066Z" fill="#010002"/>
</svg>
