<svg width="512" height="512" viewBox="0 0 512 512" fill="none" xmlns="http://www.w3.org/2000/svg">
<path d="M378.4 234.4C378.4 232.5 377.4 230.8 375.8 229.8L328.5 202.5C322.9 199.6 251.6 157.9 243.8 153.6C242.2 152.7 240.2 152.7 238.6 153.6L106.6 229.8C104.9 230.8 103.9 232.9 104 234.8V386.8C104 388.7 105 390.4 106.6 391.4L238.6 467.6C240.5 468.8 243.1 468.4 244.8 467C244.8 467.1 375.8 391.4 375.8 391.4C377.4 390.5 378.4 388.7 378.4 386.8C378.3 386.4 378.4 234.7 378.4 234.4ZM310.9 204.5L315 206.9L193.7 276.3L168 261.9L289.6 192.3L310.9 204.5ZM188.2 285.2V319.6L163 305.4V271L188.2 285.2ZM241.1 164.2L279.2 186.2L157.4 255.9C147.9 250.6 128.8 239.9 119.3 234.5L241.1 164.2ZM236.9 454.6L114.3 383.8V243.7L152.5 265.2V308.6C152.5 310.5 153.5 312.2 155.2 313.2L190.9 333.3C194.3 335.3 198.8 332.6 198.7 328.7V291.3L236.9 312.8V454.6ZM242.1 303.5L204.4 282.3L319.1 216.7L325.7 213.1L362.9 234.6L242.1 303.5ZM367.9 383.8L247.4 453.3V312.6L367.9 243.8V383.8Z" fill="black"/>
<path d="M188.2 285.2V319.6L163 305.4V271L188.2 285.2ZM315.1 206.9L193.8 276.3L168.1 261.9L289.7 192.3C292.7 194 312.6 205.5 315.1 206.9Z" fill="#FEDDCC"/>
<path d="M362.9 234.5L242.1 303.5L204.4 282.3L319.1 216.7L325.7 213L362.9 234.5ZM279.2 186.2L157.4 255.9C147.9 250.6 128.8 239.9 119.3 234.5L241 164.2L279.2 186.2Z" fill="#FEC233"/>
<path d="M236.9 312.6V454.5L114.3 383.7V243.7L152.5 265.2V308.6C152.5 310.5 153.5 312.2 155.2 313.2L190.9 333.3C194.3 335.3 198.8 332.6 198.7 328.7V291.3L236.9 312.6Z" fill="#F16932"/>
<path d="M367.9 243.8V383.8L247.4 453.3V312.6L367.9 243.8Z" fill="#F88D28"/>
<path d="M450.1 161.3C421.4 110.8 373.8 71.8001 318.6 53.7001C312.9 51.8001 261.2 40.5 261.2 42.1V7.00005C261.3 3.10005 256.4 0.300049 253.1 2.60005L150.5 69C147.4 70.9 147.3 75.8 150.5 77.8L253.1 144.1C256.3 146.4 261.3 143.7 261.2 139.7V108.7C261.3 104.6 320.1 122.1 325.1 124.4C390.8 153.5 434.6 222.9 432.2 294.7C431.3 334.3 417.5 373.8 392.9 404.9C278 545.9 55.4001 466.5 45.7001 288C43.2001 256 52.5001 225.4 62.3001 195.2C65.6001 185.5 56.9001 183.9 52.9001 192.5C-30.4999 367.8 131.7 555.9 317.8 500.4C462 460.2 524.4 288.5 450.1 161.3ZM466.6 327.3C420.9 524.8 160 565 63.4001 385.4C150 534.1 372.1 519.6 431.6 355.2C468.6 252.8 411 136.5 307 106C291 101.3 273.9 98.6 256.1 98.1C254.6 98.1 253.3 98.6 252.3 99.6C251.3 100.6 250.7 102 250.7 103.4V130.2L163 73.5L250.7 16.8V47.1C250.7 49.9 252.8 52.1 255.6 52.3C352.3 56.8 441.1 128.3 464.4 222.6C473.2 253.5 473.9 293.5 466.6 327.3Z" fill="black"/>
<path d="M471.1 294.7C466.1 384.8 401.5 466.2 314.8 491.4C218 521.1 108.4 475.4 63.5 385.4C150.1 534.1 372.2 519.6 431.7 355.2C468.7 252.8 411.1 136.5 307.1 106C291.1 101.3 274 98.6001 256.2 98.1001C254.7 98.1001 253.4 98.6001 252.4 99.6001C251.4 100.6 250.8 102 250.8 103.4V130.2L163.1 73.5L250.8 16.8V47.1C250.8 49.9 252.9 52.1 255.7 52.3C352.4 56.8 441.2 128.3 464.5 222.6C470.5 244.3 472.8 268.5 471.1 294.7Z" fill="#806CB6"/>
</svg>
