<svg width="512" height="512" viewBox="0 0 512 512" fill="none" xmlns="http://www.w3.org/2000/svg">
<path fill-rule="evenodd" clip-rule="evenodd" d="M314.539 496.953C406.481 496.953 481.464 475.668 481.464 449.573C481.464 423.478 406.481 402.221 314.539 402.221C222.596 402.221 147.613 423.478 147.613 449.573C147.613 475.668 222.596 496.953 314.539 496.953Z" fill="#A79BA7"/>
<path fill-rule="evenodd" clip-rule="evenodd" d="M309.519 496.932C399.155 496.174 471.425 475.191 471.425 449.573C471.425 423.955 399.155 402.999 309.519 402.242C311.186 402.228 312.859 402.221 314.539 402.221C406.481 402.221 481.464 423.478 481.464 449.573C481.464 475.668 406.481 496.953 314.539 496.953C312.859 496.953 311.186 496.946 309.519 496.932Z" fill="#837683"/>
<path fill-rule="evenodd" clip-rule="evenodd" d="M318.361 445.08C317.889 445.633 317.304 446.077 316.644 446.382C315.984 446.687 315.266 446.845 314.539 446.845C313.812 446.844 313.094 446.686 312.434 446.382C311.774 446.077 311.188 445.632 310.717 445.079C250.56 374.69 147.613 270.026 147.613 181.997C147.613 89.8258 222.368 15.0708 314.539 15.0708C406.738 15.0708 481.464 89.8258 481.464 181.997C481.464 270.026 378.544 374.691 318.361 445.08Z" fill="#FE646F"/>
<path fill-rule="evenodd" clip-rule="evenodd" d="M309.519 15.1451C311.187 15.0959 312.859 15.0708 314.539 15.0708C406.738 15.0708 481.464 89.8258 481.464 181.997C481.464 270.026 378.544 374.691 318.361 445.08C317.889 445.633 317.303 446.077 316.643 446.382C315.984 446.687 315.265 446.845 314.538 446.845C313.812 446.844 313.093 446.686 312.433 446.382C311.774 446.077 311.188 445.632 310.717 445.079L309.52 443.68C369.86 373.308 471.425 269.444 471.425 181.997C471.425 91.5044 399.395 17.7995 309.519 15.1451Z" fill="#FD4755"/>
<path fill-rule="evenodd" clip-rule="evenodd" d="M314.534 319.145C390.068 319.145 451.686 257.526 451.686 181.992C451.686 106.458 390.068 44.8772 314.534 44.8772C238.999 44.8772 177.419 106.458 177.419 181.992C177.419 257.526 238.999 319.145 314.534 319.145Z" fill="#ECEFF1"/>
<path fill-rule="evenodd" clip-rule="evenodd" d="M319.553 44.9686C246.33 47.6239 187.458 108.138 187.458 181.992C187.458 255.845 246.33 316.396 319.553 319.053C317.888 319.113 316.214 319.145 314.534 319.145C238.999 319.145 177.419 257.526 177.419 181.992C177.419 106.458 238.999 44.8772 314.534 44.8772C316.214 44.8772 317.888 44.9073 319.553 44.9686Z" fill="#D1D1D6"/>
<path fill-rule="evenodd" clip-rule="evenodd" d="M310.557 80.0185L227.67 127.842C225.118 129.322 223.689 131.824 223.689 134.732V230.482C223.689 233.392 225.118 235.892 227.67 237.372L310.557 285.247C313.109 286.676 315.967 286.676 318.519 285.247L401.407 237.372C403.959 235.892 405.388 233.392 405.388 230.482V134.732C405.388 131.824 403.959 129.322 401.407 127.842L318.519 80.0185C315.967 78.5387 313.109 78.5387 310.557 80.0185Z" fill="#F2D1A5"/>
<path fill-rule="evenodd" clip-rule="evenodd" d="M310.557 80.0185L227.67 127.842C226.394 128.608 225.374 129.578 224.71 130.752L314.539 182.607L404.368 130.752C403.653 129.578 402.683 128.608 401.407 127.842L318.519 80.0185C315.967 78.5387 313.109 78.5387 310.557 80.0185Z" fill="#E3A76F"/>
<path fill-rule="evenodd" clip-rule="evenodd" d="M224.71 130.752C224.046 131.925 223.689 133.304 223.689 134.732V230.482C223.689 233.392 225.118 235.892 227.67 237.372L310.557 285.247C311.833 285.962 313.16 286.318 314.539 286.318V182.607L224.71 130.752Z" fill="#ECBA78"/>
<path fill-rule="evenodd" clip-rule="evenodd" d="M373.132 148.768L346.795 163.979L255.946 111.561L282.282 96.3002L373.132 148.768Z" fill="#C48958"/>
<path fill-rule="evenodd" clip-rule="evenodd" d="M352.716 201.849L369.15 192.407C371.702 190.927 373.132 188.426 373.132 185.517V148.768L346.795 163.978V198.429C346.795 199.91 347.51 201.135 348.786 201.849C349.373 202.224 350.055 202.423 350.751 202.423C351.447 202.423 352.129 202.224 352.716 201.849Z" fill="#E3A76F"/>
<path fill-rule="evenodd" clip-rule="evenodd" d="M140.7 456.251C130.955 453.718 111.319 446.801 101.223 430.543C92.1672 415.96 89.6925 393.459 110.82 359.574C117.157 349.411 120.761 341.617 122.075 335.529C122.888 331.762 122.87 329.028 121.418 327.096C119.799 324.938 116.977 323.926 113.771 323.051C109.049 321.762 103.499 321.172 97.8243 320.641C87.1917 319.65 76.1908 318.802 68.0881 315.699C60.7173 312.877 55.3905 308.301 52.9068 301.47C47.7055 287.167 51.0767 274.033 59.3992 262.332C70.1733 247.182 89.8913 234.535 106.726 225.273C112.134 222.298 113.921 215.214 113.239 207.623C111.196 184.861 85.727 158.475 32.7501 173.611C30.702 174.195 28.5059 173.942 26.6443 172.908C24.7828 171.873 23.408 170.142 22.8223 168.095C22.2382 166.047 22.491 163.85 23.5252 161.989C24.5594 160.127 26.2904 158.752 28.3378 158.166C54.6034 150.661 75.2421 152.041 90.7125 157.899C115.455 167.267 127.618 188.139 129.238 206.186C130.552 220.833 124.903 233.606 114.469 239.347C101.957 246.23 87.514 255.013 77.5049 265.594C69.1543 274.423 63.8265 284.497 68.0018 295.98C68.6322 297.713 70.0016 298.825 71.6591 299.717C74.4429 301.214 77.9396 302.061 81.7505 302.711C91.2606 304.335 102.462 304.558 111.875 306.209C124.668 308.453 134.306 313.752 137.504 323.739C140.249 332.312 138.064 346.238 124.45 368.073C108.271 394.02 107.934 410.902 114.869 422.069C121.548 432.826 133.972 437.869 141.777 440.073C144.401 434.456 149.404 428.995 156.888 424.097C175.945 411.627 212.71 401.541 258.15 396.936C231.852 366.501 204.299 333.064 182.481 299.086C157.132 259.609 139.588 219.303 139.588 181.985C139.588 85.3835 217.936 7.03442 314.539 7.03442C411.17 7.03442 489.489 85.3835 489.489 181.985C489.489 219.303 471.95 259.608 446.604 299.086C424.789 333.064 397.239 366.501 370.939 396.936C416.374 401.542 453.135 411.628 472.19 424.098C483.854 431.731 489.489 440.732 489.489 449.561C489.489 459.599 481.931 469.988 466.633 478.346C438.063 493.953 380.592 504.966 314.539 504.966C248.485 504.966 191.014 493.953 162.444 478.346C150.531 471.837 143.312 464.098 140.7 456.251ZM271.153 411.883C230.456 415.043 196.042 422.479 174.77 432.521C168.236 435.605 163.037 438.87 159.523 442.407C157.207 444.737 155.637 447.024 155.637 449.561C155.637 452.75 157.961 455.521 161.342 458.394C166.33 462.631 173.647 466.493 182.786 470.027C212.549 481.54 260.566 488.917 314.539 488.917C368.512 488.917 416.527 481.54 446.291 470.027C455.429 466.493 462.747 462.631 467.734 458.394C471.115 455.521 473.44 452.75 473.44 449.561C473.44 447.024 471.869 444.738 469.554 442.407C466.041 438.871 460.842 435.606 454.31 432.522C433.04 422.48 398.627 415.044 357.933 411.884C344.521 427.217 331.767 441.62 320.665 454.743C319.912 455.634 318.973 456.35 317.915 456.841C316.857 457.332 315.704 457.587 314.538 457.587C313.371 457.586 312.218 457.332 311.16 456.841C310.102 456.349 309.164 455.633 308.411 454.742C297.315 441.619 284.564 427.216 271.153 411.883ZM314.54 437.197C349.797 396.189 398.69 344.009 433.099 290.415C456.613 253.791 473.44 216.605 473.44 181.985C473.44 94.2451 402.306 23.0831 314.539 23.0831C226.799 23.0831 155.637 94.2451 155.637 181.985C155.637 216.605 172.469 253.791 195.987 290.414C230.4 344.008 279.296 396.189 314.54 437.197ZM314.534 327.157C234.58 327.157 169.395 261.934 169.395 181.98C169.395 102.025 234.579 36.8409 314.534 36.8409C394.487 36.8409 459.711 102.026 459.711 181.98C459.711 261.933 394.487 327.157 314.534 327.157ZM314.534 311.107C385.649 311.107 443.661 253.095 443.661 181.98C443.661 110.866 385.648 52.8906 314.534 52.8906C243.421 52.8906 185.445 110.867 185.445 181.98C185.445 253.094 243.42 311.107 314.534 311.107ZM216.706 130.756C216.706 129.346 217.077 127.961 217.782 126.74C218.487 125.519 219.5 124.505 220.721 123.801L310.523 71.954C311.744 71.2491 313.129 70.878 314.539 70.878C315.949 70.878 317.334 71.2491 318.554 71.954L408.355 123.801C409.576 124.505 410.59 125.519 411.295 126.74C412 127.961 412.371 129.346 412.371 130.756V234.448C412.371 235.858 412 237.243 411.295 238.463C410.59 239.684 409.576 240.698 408.355 241.403L318.554 293.249C317.334 293.954 315.949 294.325 314.539 294.325C313.129 294.325 311.744 293.954 310.523 293.249L220.721 241.403C219.5 240.698 218.487 239.684 217.782 238.463C217.077 237.242 216.706 235.858 216.706 234.448V130.756ZM256.618 121.623L240.8 130.756L314.539 173.328L330.357 164.195L256.618 121.623ZM282.658 106.589L272.68 112.35L346.419 154.922L356.396 149.162L282.658 106.589ZM388.277 130.756L314.539 88.1834L298.721 97.3151L372.459 139.888L388.277 130.756ZM322.57 272.384L396.308 229.811V144.666L380.491 153.799V190.001C380.491 191.411 380.12 192.796 379.415 194.017C378.71 195.238 377.696 196.252 376.475 196.956L350.434 211.99C349.213 212.694 347.828 213.064 346.419 213.064C345.009 213.063 343.624 212.692 342.404 211.987C341.183 211.282 340.169 210.269 339.464 209.048C338.759 207.828 338.388 206.443 338.387 205.034V178.107L322.57 187.238V272.384ZM232.768 144.666V229.811L306.507 272.384V187.238L232.768 144.666ZM364.429 163.072L354.45 168.832V191.124L364.429 185.363V163.072Z" fill="black"/>
</svg>
