<svg width="512" height="512" viewBox="0 0 512 512" fill="none" xmlns="http://www.w3.org/2000/svg">
<path d="M199.678 356.729C266.893 356.729 321.381 302.252 321.381 235.052C321.381 167.852 266.893 113.375 199.678 113.375C132.463 113.375 77.9751 167.852 77.9751 235.052C77.9751 302.252 132.463 356.729 199.678 356.729Z" fill="#6C7FD8"/>
<path d="M285.735 149.013C256.848 120.132 217.052 108.808 179.608 115.034C203.771 119.052 226.954 130.376 245.595 149.013C293.123 196.531 293.123 273.573 245.595 321.091C226.954 339.728 203.77 351.052 179.608 355.07C217.052 361.296 256.848 349.972 285.735 321.091C333.263 273.573 333.263 196.531 285.735 149.013Z" fill="#4F66D0"/>
<path d="M200.567 326.691C251.187 326.21 291.834 284.793 291.353 234.182C290.872 183.572 249.446 142.934 198.825 143.415C148.205 143.896 107.558 185.313 108.039 235.924C108.52 286.534 149.946 327.172 200.567 326.691Z" fill="#D8ECFE"/>
<path d="M264.489 170.254C262.9 168.665 261.252 167.173 259.578 165.725C288.46 207.282 288.46 262.822 259.578 304.378C261.252 302.931 262.9 301.438 264.489 299.849C300.226 264.12 300.226 205.983 264.489 170.254Z" fill="#C4E2FF"/>
<path d="M438.477 450.835L415.503 473.804C410.33 478.976 401.943 478.976 396.77 473.804L310.203 387.255C305.028 382.081 305.028 373.691 310.203 368.518L333.177 345.549C338.35 340.377 346.737 340.377 351.91 345.549L438.477 432.098C443.652 437.272 443.652 445.661 438.477 450.835Z" fill="#918291"/>
<path d="M438.477 432.098L351.91 345.549C346.737 340.377 338.35 340.377 333.176 345.549L327.538 351.186L408.467 432.098C413.642 437.272 413.642 445.662 408.467 450.835L391.131 468.167L396.769 473.804C401.942 478.976 410.329 478.976 415.502 473.804L438.476 450.835C443.652 445.661 443.652 437.272 438.477 432.098Z" fill="#7A6D79"/>
<path d="M44.442 108.185C64.8445 108.185 81.384 91.6491 81.384 71.251C81.384 50.8529 64.8445 34.317 44.442 34.317C24.0395 34.317 7.5 50.8529 7.5 71.251C7.5 91.6491 24.0395 108.185 44.442 108.185Z" fill="#E5CAF3"/>
<path d="M312.615 108.185C333.017 108.185 349.557 91.6491 349.557 71.251C349.557 50.8529 333.017 34.317 312.615 34.317C292.212 34.317 275.673 50.8529 275.673 71.251C275.673 91.6491 292.212 108.185 312.615 108.185Z" fill="#80D261"/>
<path d="M199.385 246.128C219.787 246.128 236.327 229.592 236.327 209.194C236.327 188.796 219.787 172.26 199.385 172.26C178.982 172.26 162.443 188.796 162.443 209.194C162.443 229.592 178.982 246.128 199.385 246.128Z" fill="#CB97E7"/>
<path d="M467.558 246.128C487.961 246.128 504.5 229.592 504.5 209.194C504.5 188.796 487.961 172.26 467.558 172.26C447.156 172.26 430.616 188.796 430.616 209.194C430.616 229.592 447.156 246.128 467.558 246.128Z" fill="#FFD15B"/>
<path d="M81.3799 71.2501C81.3799 91.6501 64.8399 108.19 44.4399 108.19C40.0399 108.19 35.8299 107.42 31.9199 106.01C46.1499 100.88 56.3299 87.2501 56.3299 71.2501C56.3299 55.2501 46.1499 41.6301 31.9199 36.5001C35.8299 35.0901 40.0399 34.3201 44.4399 34.3201C64.8399 34.3201 81.3799 50.8501 81.3799 71.2501Z" fill="#D9B1EE"/>
<path d="M349.56 71.25C349.56 91.65 333.02 108.19 312.62 108.19C308.22 108.19 304 107.42 300.09 106.01C314.32 100.88 324.5 87.25 324.5 71.25C324.5 55.25 314.32 41.63 300.09 36.5C304.109 35.053 308.348 34.3153 312.62 34.32C333.02 34.32 349.56 50.85 349.56 71.25Z" fill="#68CA44"/>
<path d="M236.33 209.19C236.33 229.59 219.79 246.13 199.38 246.13C194.98 246.13 190.77 245.36 186.86 243.95C201.09 238.82 211.27 225.19 211.27 209.19C211.27 193.2 201.09 179.57 186.86 174.44C190.77 173.03 194.98 172.26 199.38 172.26C219.79 172.26 236.33 188.8 236.33 209.19Z" fill="#BD80E1"/>
<path d="M504.5 209.19C504.5 229.59 487.96 246.13 467.56 246.13C463.16 246.13 458.94 245.36 455.03 243.95C469.26 238.82 479.44 225.19 479.44 209.19C479.44 193.2 469.26 179.57 455.03 174.44C459.049 172.993 463.288 172.255 467.56 172.26C487.96 172.26 504.5 188.8 504.5 209.19Z" fill="#FFC344"/>
<path d="M199.678 356.729C266.893 356.729 321.381 302.252 321.381 235.052C321.381 167.852 266.893 113.375 199.678 113.375C132.463 113.375 77.9751 167.852 77.9751 235.052C77.9751 302.252 132.463 356.729 199.678 356.729Z" stroke="black" stroke-width="15" stroke-miterlimit="10" stroke-linecap="round" stroke-linejoin="round"/>
<path d="M181.895 324.92C164.071 321.435 147.695 312.705 134.866 299.849C99.1292 264.119 99.1292 205.983 134.866 170.254C170.603 134.525 228.752 134.524 264.489 170.254C300.226 205.984 300.226 264.12 264.489 299.85C251.575 312.792 235.066 321.551 217.109 324.989M285.735 321.09L321.687 357.036M424.753 418.377L438.477 432.098C443.652 437.272 443.652 445.662 438.477 450.835L415.503 473.804C410.33 478.976 401.943 478.976 396.77 473.804L310.203 387.255C305.028 382.081 305.028 373.691 310.203 368.518L333.177 345.549C338.35 340.377 346.737 340.377 351.91 345.549L400.002 393.631" stroke="black" stroke-width="15" stroke-miterlimit="10" stroke-linecap="round" stroke-linejoin="round"/>
<path d="M44.442 108.185C64.8445 108.185 81.384 91.6491 81.384 71.251C81.384 50.8529 64.8445 34.317 44.442 34.317C24.0395 34.317 7.5 50.8529 7.5 71.251C7.5 91.6491 24.0395 108.185 44.442 108.185Z" stroke="black" stroke-width="15" stroke-miterlimit="10" stroke-linecap="round" stroke-linejoin="round"/>
<path d="M312.615 108.185C333.017 108.185 349.557 91.6491 349.557 71.251C349.557 50.8529 333.017 34.317 312.615 34.317C292.212 34.317 275.673 50.8529 275.673 71.251C275.673 91.6491 292.212 108.185 312.615 108.185Z" stroke="black" stroke-width="15" stroke-miterlimit="10" stroke-linecap="round" stroke-linejoin="round"/>
<path d="M199.385 246.128C219.787 246.128 236.327 229.592 236.327 209.194C236.327 188.796 219.787 172.26 199.385 172.26C178.982 172.26 162.443 188.796 162.443 209.194C162.443 229.592 178.982 246.128 199.385 246.128Z" stroke="black" stroke-width="15" stroke-miterlimit="10" stroke-linecap="round" stroke-linejoin="round"/>
<path d="M467.558 246.128C487.961 246.128 504.5 229.592 504.5 209.194C504.5 188.796 487.961 172.26 467.558 172.26C447.156 172.26 430.616 188.796 430.616 209.194C430.616 229.592 447.156 246.128 467.558 246.128Z" stroke="black" stroke-width="15" stroke-miterlimit="10" stroke-linecap="round" stroke-linejoin="round"/>
<path d="M122.62 140.86L72.0298 95.82M171.8 184.63L145.44 161.16M439.971 184.632L340.199 95.815M439.971 184.632V158.792M439.971 184.632H414.131M244.01 154.83L222.82 180.65M289.18 99.8L263.32 131.31M457.29 34.317V40.91M457.29 77.399V83.992M482.128 59.154H475.534M439.045 59.154H432.452" stroke="black" stroke-width="15" stroke-miterlimit="10" stroke-linecap="round" stroke-linejoin="round"/>
</svg>
