<svg width="512" height="512" viewBox="0 0 512 512" fill="none" xmlns="http://www.w3.org/2000/svg">
<path fill-rule="evenodd" clip-rule="evenodd" d="M168.637 392.836C169.505 392.836 170.421 393.014 171.288 393.371L218.765 413.042C220.934 413.938 222.525 415.857 222.959 418.151L228.357 445.452C228.598 446.638 229.514 447.404 230.719 447.404H281.281C282.486 447.404 283.45 446.638 283.643 445.457L289.042 418.156C289.524 415.857 291.066 413.938 293.235 413.042L340.713 393.371C342.882 392.474 345.34 392.721 347.317 394.022L370.405 409.523C371.417 410.198 372.622 410.082 373.441 409.229L409.254 373.455C410.074 372.602 410.218 371.407 409.544 370.404L394.023 347.292C393.381 346.333 392.987 345.23 392.878 344.081C392.768 342.933 392.946 341.775 393.396 340.712L413.062 293.23C413.929 291.071 415.858 289.495 418.171 289.046L445.452 283.662C446.657 283.426 447.428 282.5 447.428 281.29V230.704C447.428 229.494 446.657 228.564 445.452 228.333L418.171 222.954C415.857 222.496 413.929 220.925 413.062 218.76L393.396 171.283C392.946 170.221 392.768 169.064 392.877 167.917C392.987 166.769 393.38 165.666 394.023 164.709L409.544 141.592C410.219 140.589 410.074 139.394 409.254 138.541L373.441 102.772C372.622 101.914 371.417 101.798 370.405 102.473L347.317 117.974C345.341 119.275 342.883 119.521 340.713 118.624L293.235 98.954C291.066 98.057 289.524 96.139 289.042 93.84L283.643 66.539C283.45 65.358 282.486 64.592 281.281 64.592H230.719C229.514 64.592 228.598 65.359 228.357 66.539L222.959 93.84C222.525 96.139 220.935 98.057 218.765 98.954L171.288 118.624C170.226 119.066 169.072 119.238 167.928 119.124C166.785 119.011 165.687 118.616 164.733 117.974L141.597 102.473C140.585 101.798 139.428 101.914 138.56 102.772L102.795 138.541C101.927 139.394 101.783 140.59 102.458 141.592L117.979 164.709C118.617 165.668 119.012 166.767 119.129 167.913C119.247 169.058 119.084 170.215 118.654 171.283L98.9877 218.76C98.536 219.827 97.8297 220.767 96.9308 221.498C96.0318 222.229 94.9674 222.729 93.8307 222.954L66.5487 228.333C65.3437 228.564 64.6207 229.495 64.6207 230.704V281.29C64.6207 282.5 65.3437 283.425 66.5487 283.662L93.8307 289.046C94.9673 289.267 96.0321 289.765 96.9314 290.494C97.8306 291.224 98.5368 292.163 98.9877 293.23L118.654 340.712C119.084 341.78 119.248 342.937 119.13 344.083C119.012 345.229 118.617 346.328 117.979 347.287L102.458 370.404C101.783 371.407 101.928 372.602 102.795 373.455L138.56 409.229C139.428 410.082 140.584 410.198 141.597 409.523L164.733 394.022C165.886 393.245 167.246 392.831 168.637 392.836ZM281.281 461.401H230.719C222.766 461.401 216.163 455.959 214.62 448.16L209.945 424.537L169.408 407.739L149.405 421.153C142.802 425.578 134.27 424.744 128.631 419.129L92.8657 383.355C87.2747 377.74 86.4067 369.208 90.8417 362.605L104.242 342.607L87.4677 302.056L63.8497 297.4C56.0407 295.862 50.5947 289.24 50.5947 281.291V230.705C50.5947 222.757 56.0417 216.139 63.8497 214.601L87.4677 209.94L104.242 169.394L90.8417 149.391C86.4077 142.792 87.2747 134.256 92.8657 128.641L128.631 92.871C134.27 87.251 142.802 86.417 149.405 90.842L169.408 104.256L209.945 87.453L214.62 63.835C216.162 56.036 222.766 50.594 230.719 50.594H281.281C289.234 50.594 295.886 56.036 297.428 63.835L302.055 87.453L342.592 104.256L362.595 90.842C369.199 86.417 377.73 87.251 383.369 92.871L419.134 128.641C424.773 134.256 425.593 142.793 421.158 149.391L407.758 169.394L424.532 209.94L448.15 214.601C455.958 216.138 461.405 222.756 461.405 230.705V281.291C461.405 289.239 455.958 295.862 448.15 297.4L424.532 302.056L407.758 342.607L421.158 362.605C425.592 369.204 424.773 377.74 419.134 383.355L383.369 419.129C377.729 424.744 369.198 425.578 362.595 421.153L342.592 407.739L302.055 424.542L297.428 448.16C295.886 455.959 289.234 461.401 281.281 461.401Z" fill="#FF695A"/>
<path fill-rule="evenodd" clip-rule="evenodd" d="M256.024 147.091C195.966 147.091 147.091 195.947 147.091 255.995C147.091 316.043 195.966 364.904 256.024 364.904C316.082 364.904 364.909 316.048 364.909 255.995C364.909 195.942 316.034 147.091 256.024 147.091ZM256.024 378.901C188.254 378.901 133.113 323.769 133.113 255.995C133.113 188.221 188.254 133.094 256.024 133.094C323.794 133.094 378.935 188.231 378.935 255.995C378.935 323.759 323.794 378.901 256.024 378.901Z" fill="#FF695A"/>
<path fill-rule="evenodd" clip-rule="evenodd" d="M343.845 18.001C336.326 18.001 330.204 24.108 330.204 31.618C330.204 39.128 336.325 45.239 343.845 45.239C351.316 45.239 357.437 39.132 357.437 31.618C357.437 24.104 351.316 18.001 343.845 18.001ZM58.8359 124.601C57.4379 124.601 55.9919 124.187 54.7869 123.324C51.6539 121.102 50.8829 116.735 53.0999 113.573C99.5169 47.538 175.385 8.11002 256.024 8.11002C277.96 8.11002 299.687 10.978 320.657 16.631C325.583 9.03502 334.136 3.99902 343.845 3.99902C359.076 3.99902 371.464 16.391 371.464 31.618C371.464 46.845 359.076 59.242 343.845 59.242C328.614 59.242 316.226 46.85 316.226 31.618C316.226 31.06 316.245 30.505 316.278 29.955C296.708 24.751 276.448 22.113 256.024 22.113C179.916 22.113 108.386 59.314 64.5239 121.628C63.8853 122.545 63.0347 123.294 62.0444 123.812C61.0541 124.33 59.9534 124.6 58.8359 124.601ZM480.397 330.195C472.878 330.195 466.756 336.307 466.756 343.817C466.756 351.327 472.877 357.438 480.397 357.438C487.917 357.438 493.989 351.326 493.989 343.817C493.989 336.308 487.916 330.195 480.397 330.195ZM480.397 371.435C465.166 371.435 452.778 359.047 452.778 343.816C452.778 328.585 465.165 316.192 480.397 316.192C480.949 316.192 481.5 316.209 482.051 316.243C487.279 296.68 489.893 276.44 489.893 255.994C489.893 179.924 452.682 108.352 390.359 64.537C387.226 62.315 386.455 57.948 388.672 54.786C390.889 51.624 395.276 50.863 398.457 53.085C464.444 99.521 503.92 175.374 503.92 255.994C503.926 277.816 501.051 299.544 495.37 320.613C502.975 325.538 508.016 334.099 508.016 343.815C508.016 359.046 495.629 371.434 480.397 371.434V371.435ZM168.203 466.756C160.684 466.756 154.562 472.863 154.562 480.378C154.562 487.893 160.684 493.999 168.203 493.999C175.674 493.999 181.795 487.887 181.795 480.378C181.795 472.869 175.674 466.756 168.203 466.756ZM168.203 508.001C152.972 508.001 140.584 495.609 140.584 480.377C140.584 465.145 152.971 452.753 168.203 452.753C183.435 452.753 195.822 465.145 195.822 480.377C195.822 480.941 195.803 481.501 195.769 482.057C215.324 487.253 235.572 489.883 256.024 489.883C332.084 489.883 403.662 452.682 447.476 390.373C449.693 387.206 454.031 386.449 457.213 388.671C460.394 390.893 461.165 395.26 458.9 398.422C412.483 464.461 336.616 503.885 256.024 503.885C234.058 503.885 212.342 501.025 191.386 495.376C186.459 502.968 177.909 508.001 168.203 508.001ZM31.6029 154.557C24.1319 154.557 18.0099 160.669 18.0099 168.179C18.0099 175.689 24.1309 181.805 31.6029 181.805C39.1219 181.805 45.2439 175.693 45.2439 168.179C45.2439 160.665 39.1229 154.557 31.6029 154.557ZM31.6029 195.802C31.0509 195.802 30.5029 195.784 29.9599 195.752C24.7422 215.408 22.1027 235.659 22.1079 255.995C22.1079 332.07 59.3189 403.643 121.642 447.457C124.775 449.684 125.546 454.046 123.329 457.208C121.979 459.146 119.81 460.182 117.593 460.182C116.159 460.188 114.759 459.743 113.592 458.91C47.5569 412.473 8.12889 336.62 8.12889 255.995C8.12889 234.074 10.9759 212.362 16.6309 191.381C9.02589 186.455 3.98389 177.895 3.98389 168.178C3.98389 152.951 16.3709 140.554 31.6029 140.554C46.8349 140.554 59.2219 152.951 59.2219 168.178C59.2219 183.405 46.8339 195.802 31.6029 195.802ZM256.024 331.747C252.12 331.747 248.987 328.609 248.987 324.743V187.251C248.987 183.385 252.12 180.248 256.024 180.248C259.88 180.248 263.013 183.386 263.013 187.251V324.743C263.013 328.609 259.88 331.747 256.024 331.747ZM299.597 282.814C299.308 282.814 298.97 282.795 298.681 282.756C296.512 282.471 294.632 281.199 293.524 279.314L278.437 253.209C276.509 249.859 277.666 245.579 280.992 243.646C284.366 241.708 288.656 242.86 290.584 246.205L301.092 264.415L334.254 231.229C335.573 229.916 337.358 229.179 339.218 229.179C341.079 229.179 342.864 229.916 344.183 231.229C346.882 233.962 346.882 238.396 344.183 241.129L304.562 280.764C303.239 282.07 301.456 282.806 299.597 282.813V282.814ZM220.982 285.123C219.15 285.123 217.367 284.438 216.017 283.074L198.858 265.896L181.698 283.074C180.379 284.387 178.594 285.124 176.733 285.124C174.873 285.124 173.088 284.387 171.769 283.074C171.116 282.426 170.598 281.654 170.244 280.805C169.891 279.955 169.709 279.044 169.709 278.124C169.709 277.204 169.891 276.293 170.244 275.443C170.598 274.594 171.116 273.823 171.769 273.174L188.928 255.995L171.769 238.821C171.116 238.173 170.598 237.401 170.244 236.552C169.891 235.702 169.709 234.791 169.709 233.871C169.709 232.951 169.891 232.04 170.244 231.19C170.598 230.341 171.116 229.57 171.769 228.921C173.088 227.608 174.873 226.871 176.733 226.871C178.594 226.871 180.379 227.608 181.698 228.921L198.858 246.1L216.017 228.921C217.336 227.608 219.121 226.871 220.981 226.871C222.842 226.871 224.627 227.608 225.946 228.921C228.645 231.659 228.645 236.088 225.946 238.821L208.739 255.995L225.946 273.174C228.645 275.907 228.645 280.337 225.946 283.074C224.548 284.438 222.766 285.123 220.982 285.123Z" fill="#2E3760"/>
</svg>
