<svg width="512" height="512" viewBox="0 0 512 512" fill="none" xmlns="http://www.w3.org/2000/svg">
<path d="M256 0C114.842 0 0 114.842 0 256C0 317.824 22.0331 374.596 58.6581 418.884C58.752 419.012 58.7605 419.174 58.8629 419.294C85.3077 451.183 118.519 475.631 155.529 491.426C155.955 491.605 156.373 491.802 156.8 491.981C159.795 493.244 162.825 494.413 165.862 495.556C167.057 496.009 168.252 496.469 169.463 496.905C172.083 497.843 174.72 498.731 177.374 499.584C179.072 500.13 180.77 500.668 182.485 501.18C184.832 501.879 187.187 502.554 189.559 503.194C191.642 503.757 193.741 504.277 195.84 504.781C197.965 505.293 200.098 505.805 202.24 506.257C204.629 506.769 207.044 507.221 209.468 507.665C211.413 508.023 213.35 508.399 215.313 508.715C218.001 509.15 220.706 509.491 223.42 509.841C225.169 510.063 226.91 510.319 228.668 510.507C231.74 510.831 234.837 511.061 237.943 511.275C239.386 511.377 240.819 511.531 242.27 511.607C246.801 511.863 251.383 512 256 512C260.617 512 265.199 511.864 269.747 511.625C271.198 511.548 272.631 511.394 274.074 511.292C277.18 511.07 280.277 510.848 283.349 510.524C285.107 510.336 286.848 510.08 288.597 509.858C291.311 509.508 294.016 509.167 296.704 508.732C298.658 508.416 300.604 508.041 302.549 507.682C304.964 507.238 307.379 506.786 309.777 506.274C311.919 505.813 314.044 505.31 316.177 504.798C318.276 504.286 320.375 503.765 322.458 503.211C326.55 502.112 330.613 500.908 334.643 499.601C337.297 498.748 339.934 497.86 342.554 496.922C343.757 496.486 344.951 496.026 346.155 495.573C349.198 494.438 352.219 493.246 355.217 491.998C355.644 491.819 356.062 491.622 356.489 491.443C393.996 475.441 427.137 450.711 453.154 419.311C453.257 419.191 453.265 419.021 453.359 418.901C489.967 374.596 512 317.824 512 256C512 114.842 397.158 0 256 0ZM359.74 471.211C359.612 471.27 359.492 471.339 359.364 471.398C356.318 472.866 353.22 474.249 350.097 475.597C349.389 475.896 348.689 476.203 347.981 476.501C345.243 477.644 342.483 478.733 339.703 479.77C338.545 480.206 337.381 480.63 336.213 481.041C333.747 481.923 331.266 482.765 328.772 483.567C327.219 484.062 325.658 484.531 324.096 484.992C321.874 485.662 319.64 486.297 317.397 486.895C315.503 487.398 313.591 487.859 311.68 488.311C309.675 488.789 307.678 489.276 305.655 489.702C303.445 490.172 301.218 490.573 298.999 490.974C297.199 491.307 295.407 491.657 293.589 491.947C291.089 492.339 288.563 492.655 286.046 492.971C284.45 493.175 282.863 493.414 281.25 493.585C278.374 493.892 275.473 494.089 272.58 494.293C271.292 494.379 270.012 494.524 268.706 494.592C264.482 494.814 260.25 494.933 256 494.933C251.75 494.933 247.518 494.814 243.302 494.592C242.005 494.524 240.725 494.387 239.428 494.293C236.527 494.097 233.634 493.892 230.758 493.585C229.146 493.414 227.558 493.175 225.963 492.971C223.445 492.655 220.919 492.339 218.419 491.947C216.602 491.657 214.81 491.307 213.009 490.974C210.782 490.573 208.555 490.163 206.353 489.702C204.331 489.276 202.325 488.789 200.329 488.311C198.417 487.851 196.506 487.398 194.611 486.895C192.367 486.298 190.131 485.649 187.913 484.992C186.349 484.534 184.79 484.059 183.236 483.567C180.742 482.766 178.262 481.924 175.795 481.041C171.832 479.635 167.908 478.121 164.028 476.501C163.319 476.211 162.628 475.904 161.92 475.605C158.799 474.272 155.706 472.872 152.644 471.407C152.517 471.348 152.392 471.285 152.269 471.219C122.496 456.815 96.1963 436.369 74.8544 411.537C91.3493 350.797 138.044 301.833 198.118 282.351C199.305 283.076 200.542 283.725 201.762 284.407C202.479 284.809 203.187 285.235 203.913 285.619C206.446 286.972 209.034 288.222 211.669 289.365C213.692 290.253 215.782 291.004 217.865 291.772C218.274 291.917 218.684 292.079 219.093 292.224C230.665 296.32 243.046 298.667 256 298.667C268.954 298.667 281.335 296.32 292.898 292.224C293.308 292.079 293.717 291.917 294.127 291.772C296.209 291.004 298.3 290.253 300.322 289.365C302.957 288.222 305.545 286.972 308.079 285.619C308.804 285.227 309.513 284.809 310.229 284.407C311.45 283.725 312.695 283.076 313.89 282.342C373.965 301.833 420.651 350.797 437.154 411.529C415.812 436.352 389.513 456.798 359.74 471.211ZM162.133 187.733C162.133 135.979 204.245 93.8667 256 93.8667C307.755 93.8667 349.867 135.979 349.867 187.733C349.867 220.655 332.791 249.626 307.063 266.385C303.712 268.562 300.22 270.515 296.61 272.23C296.183 272.435 295.765 272.649 295.339 272.845C270.626 284.083 241.374 284.083 216.661 272.845C216.235 272.649 215.808 272.435 215.39 272.23C211.779 270.517 208.287 268.564 204.937 266.385C179.209 249.626 162.133 220.655 162.133 187.733ZM449.954 395.29C430.609 338.168 386.475 292.002 330.086 270.071C352.64 249.754 366.933 220.416 366.933 187.733C366.933 126.566 317.167 76.8 256 76.8C194.833 76.8 145.067 126.566 145.067 187.733C145.067 220.416 159.36 249.754 181.922 270.071C125.534 292.011 81.3995 338.168 62.0544 395.29C33.7835 356.045 17.0667 307.951 17.0667 256C17.0667 124.254 124.254 17.0667 256 17.0667C387.746 17.0667 494.933 124.254 494.933 256C494.933 307.951 478.217 356.045 449.954 395.29Z" fill="black"/>
</svg>
